0
SECTION
2
HEADER
9
$ACADVER
1
AC1032
9
$HANDSEED
5
95
9
$ACADMAINTVER
70
55
9
$DWGCODEPAGE
1
ANSI_1252
9
$LASTSAVEDBY
1
pjb
9
$REQUIREDVERSIONS
70
0
9
$INSBASE
10
0.0
20
0.0
30
0.0
9
$EXTMIN
10
100000000000000000000.0
20
100000000000000000000.0
30
100000000000000000000.0
9
$EXTMAX
10
-100000000000000000000.0
20
-100000000000000000000.0
30
-100000000000000000000.0
9
$LIMMIN
10
0.0
20
0.0
9
$LIMMAX
10
420.0
20
297.0
9
$ORTHOMODE
70
0
9
$REGENMODE
70
1
9
$FILLMODE
70
1
9
$QTEXTMODE
70
0
9
$MIRRTEXT
70
0
9
$LTSCALE
40
1.0
9
$ATTMODE
70
1
9
$TEXTSIZE
40
2.5
9
$TRACEWID
40
1.0
9
$TEXTSTYLE
1
Standard
9
$CLAYER
1
0
9
$CELTYPE
1
ByLayer
9
$CECOLOR
70
0
9
$CELTSCALE
40
1.0
9
$DISPSILH
70
0
9
$DIMSCALE
40
1.0
9
$DIMASZ
40
2.5
9
$DIMEXO
40
0.625
9
$DIMDLI
40
3.75
9
$DIMRND
40
0.0
9
$DIMDLE
40
0.0
9
$DIMEXE
40
1.25
9
$DIMTP
40
0.0
9
$DIMTM
40
0.0
9
$DIMTXT
40
2.5
9
$DIMCEN
40
2.5
9
$DIMTSZ
40
0.0
9
$DIMTOL
70
0
9
$DIMLIM
70
0
9
$DIMTIH
70
0
9
$DIMTOH
70
0
9
$DIMSE1
70
0
9
$DIMSE2
70
0
9
$DIMTAD
70
1
9
$DIMZIN
70
8
9
$DIMBLK
1

9
$DIMASO
70
1
9
$DIMSHO
70
1
9
$DIMPOST
1

9
$DIMAPOST
1

9
$DIMALT
70
0
9
$DIMALTD
70
3
9
$DIMALTF
40
0.03937007874
9
$DIMLFAC
40
1.0
9
$DIMTOFL
70
1
9
$DIMTVP
40
0.0
9
$DIMTIX
70
0
9
$DIMSOXD
70
0
9
$DIMSAH
70
0
9
$DIMBLK1
1

9
$DIMBLK2
1

9
$DIMSTYLE
1
ISO-25
9
$DIMCLRD
70
0
9
$DIMCLRE
70
0
9
$DIMCLRT
70
0
9
$DIMTFAC
40
1.0
9
$DIMGAP
40
0.625
9
$DIMJUST
70
0
9
$DIMSD1
70
0
9
$DIMSD2
70
0
9
$DIMTOLJ
70
0
9
$DIMTZIN
70
8
9
$DIMALTZ
70
0
9
$DIMALTTZ
70
0
9
$DIMUPT
70
0
9
$DIMDEC
70
2
9
$DIMTDEC
70
2
9
$DIMALTU
70
2
9
$DIMALTTD
70
3
9
$DIMTXSTY
1
Standard
9
$DIMAUNIT
70
0
9
$DIMADEC
70
0
9
$DIMALTRND
40
0.0
9
$DIMAZIN
70
0
9
$DIMDSEP
70
44
9
$DIMATFIT
70
3
9
$DIMFRAC
70
0
9
$DIMLDRBLK
1

9
$DIMLUNIT
70
2
9
$DIMLWD
70
-2
9
$DIMLWE
70
-2
9
$DIMTMOVE
70
0
9
$DIMFXL
40
1.0
9
$DIMFXLON
70
0
9
$DIMJOGANG
40
0.785398163397
9
$DIMTFILL
70
0
9
$DIMTFILLCLR
70
0
9
$DIMARCSYM
70
0
9
$DIMLTYPE
1

9
$DIMLTEX1
1

9
$DIMLTEX2
1

9
$DIMTXTDIRECTION
70
0
9
$LUNITS
70
2
9
$LUPREC
70
4
9
$AXISMODE
70
0
9
$AXISUNIT
10
0.0
20
0.0
9
$SKETCHINC
40
1.0
9
$FILLETRAD
40
10.0
9
$AUNITS
70
0
9
$AUPREC
70
2
9
$MENU
1
.
9
$ELEVATION
40
0.0
9
$PELEVATION
40
0.0
9
$THICKNESS
40
0.0
9
$LIMCHECK
70
0
9
$CHAMFERA
40
0.0
9
$CHAMFERB
40
0.0
9
$CHAMFERC
40
0.0
9
$CHAMFERD
40
0.0
9
$SKPOLY
70
0
9
$TDCREATE
40
2461283.79557859
9
$TDUCREATE
40
2461283.72357859
9
$TDUPDATE
40
2461283.79577573
9
$TDUUPDATE
40
2461283.72377573
9
$TDINDWG
40
0.00019706
9
$TDUSRTIMER
40
0.00019706
9
$USRTIMER
70
1
9
$ANGBASE
40
0.0
9
$ANGDIR
70
0
9
$PDMODE
70
0
9
$PDSIZE
40
0.0
9
$PLINEWID
40
0.0
9
$SPLFRAME
70
0
9
$SPLINETYPE
70
6
9
$SPLINESEGS
70
8
9
$SURFTAB1
70
6
9
$SURFTAB2
70
6
9
$SURFTYPE
70
6
9
$SURFU
70
6
9
$SURFV
70
6
9
$UCSBASE
1

9
$UCSORG
10
0.0
20
0.0
30
0.0
9
$UCSXDIR
10
1.0
20
0.0
30
0.0
9
$UCSYDIR
10
0.0
20
1.0
30
0.0
9
$UCSORTHOREF
1

9
$UCSORTHOVIEW
70
0
9
$UCSORGTOP
10
0.0
20
0.0
30
0.0
9
$UCSORGBOTTOM
10
0.0
20
0.0
30
0.0
9
$UCSORGLEFT
10
0.0
20
0.0
30
0.0
9
$UCSORGRIGHT
10
0.0
20
0.0
30
0.0
9
$UCSORGFRONT
10
0.0
20
0.0
30
0.0
9
$UCSORGBACK
10
0.0
20
0.0
30
0.0
9
$PUCSBASE
1

9
$PUCSORG
10
0.0
20
0.0
30
0.0
9
$PUCSXDIR
10
1.0
20
0.0
30
0.0
9
$PUCSYDIR
10
0.0
20
1.0
30
0.0
9
$PUCSORTHOREF
1

9
$PUCSORTHOVIEW
70
0
9
$PUCSORGTOP
10
0.0
20
0.0
30
0.0
9
$PUCSORGBOTTOM
10
0.0
20
0.0
30
0.0
9
$PUCSORGLEFT
10
0.0
20
0.0
30
0.0
9
$PUCSORGRIGHT
10
0.0
20
0.0
30
0.0
9
$PUCSORGFRONT
10
0.0
20
0.0
30
0.0
9
$PUCSORGBACK
10
0.0
20
0.0
30
0.0
9
$USERI1
70
0
9
$USERI2
70
0
9
$USERI3
70
0
9
$USERI4
70
0
9
$USERI5
70
0
9
$USERR1
40
0.0
9
$USERR2
40
0.0
9
$USERR3
40
0.0
9
$USERR4
40
0.0
9
$USERR5
40
0.0
9
$WORLDVIEW
70
1
9
$SHADEDGE
70
3
9
$SHADEDIF
70
70
9
$TILEMODE
70
1
9
$MAXACTVP
70
64
9
$PINSBASE
10
0.0
20
0.0
30
0.0
9
$PLIMCHECK
70
0
9
$PEXTMIN
10
100000000000000000000.0
20
100000000000000000000.0
30
100000000000000000000.0
9
$PEXTMAX
10
-100000000000000000000.0
20
-100000000000000000000.0
30
-100000000000000000000.0
9
$PLIMMIN
10
0.0
20
0.0
9
$PLIMMAX
10
420.0
20
297.0
9
$UNITMODE
70
0
9
$VISRETAIN
70
1
9
$PLINEGEN
70
0
9
$PSLTSCALE
70
1
9
$TREEDEPTH
70
3020
9
$CMLSTYLE
1
S
9
$CMLJUST
70
0
9
$CMLSCALE
40
20.0
9
$PROXYGRAPHICS
70
1
9
$MEASUREMENT
70
1
9
$CELWEIGHT
70
-1
9
$ENDCAPS
70
0
9
$JOINSTYLE
70
0
9
$LWDISPLAY
70
0
9
$INSUNITS
70
6
9
$HYPERLINKBASE
1

9
$STYLESHEET
1

9
$XEDIT
70
1
9
$CEPSNTYPE
70
0
9
$PSTYLEMODE
70
1
9
$FINGERPRINTGUID
1
{c77e07a8-576b-4540-b85a-eb6d96026a5a}
9
$VERSIONGUID
1
{5174ed9b-ff9b-c94a-ae60-dfaeac6b74e1}
9
$EXTNAMES
70
1
9
$PSVPSCALE
40
0.0
9
$OLESTARTUP
70
0
9
$SORTENTS
70
127
9
$INDEXCTL
70
0
9
$HIDETEXT
70
1
9
$XCLIPFRAME
70
2
9
$HALOGAP
70
0
9
$OBSCOLOR
70
257
9
$OBSLTYPE
70
0
9
$INTERSECTIONDISPLAY
70
0
9
$INTERSECTIONCOLOR
70
257
9
$DIMASSOC
70
2
9
$PROJECTNAME
1

9
$CAMERADISPLAY
70
0
9
$LENSLENGTH
40
50.0
9
$CAMERAHEIGHT
40
0.0
9
$STEPSPERSEC
40
24.0
9
$STEPSIZE
40
100.0
9
$3DDWFPREC
40
2.0
9
$PSOLWIDTH
40
0.005
9
$PSOLHEIGHT
40
0.08
9
$LOFTANG1
40
1.570796326795
9
$LOFTANG2
40
1.570796326795
9
$LOFTMAG1
40
0.0
9
$LOFTMAG2
40
0.0
9
$LOFTPARAM
70
7
9
$LOFTNORMALS
70
1
9
$LATITUDE
40
37.795
9
$LONGITUDE
40
-122.394
9
$NORTHDIRECTION
40
0.0
9
$TIMEZONE
70
-8000
9
$LIGHTGLYPHDISPLAY
70
1
9
$TILEMODELIGHTSYNCH
70
1
9
$CMATERIAL
1
45
9
$SOLIDHIST
70
0
9
$SHOWHIST
70
1
9
$DWFFRAME
70
2
9
$DGNFRAME
70
2
9
$REALWORLDSCALE
70
1
9
$INTERFERECOLOR
70
0
9
$CSHADOW
70
0
9
$SHADOWPLANELOCATION
40
0.0
0
ENDSEC
0
SECTION
2
TABLES
0
TABLE
2
VPORT
70
1
0
VPORT
5
22
330
8
100
AcDbSymbolTableRecord
100
AcDbViewportTableRecord
2
*Active
70
0
10
0.0
20
0.0
11
1.0
21
1.0
12
344.18691588785
22
148.5
13
0.0
23
0.0
14
10.0
24
10.0
15
10.0
25
10.0
16
0.0
26
0.0
36
1.0
17
0.0
27
0.0
37
0.0
40
297.0
41
1.97297297285
42
50.0
43
0.0
44
0.0
50
0.0
51
0.0
71
0
72
100
73
1
74
3
75
0
76
0
77
0
78
0
281
0
65
1
110
0.0
120
0.0
130
0.0
111
1.0
121
0.0
131
0.0
112
0.0
122
1.0
132
0.0
79
0
146
0.0
348
29
60
3
61
5
292
0
282
1
141
0.0
142
0.0
63
250
361
23
0
ENDTAB
0
TABLE
2
LTYPE
70
3
0
LTYPE
5
14
330
5
100
AcDbSymbolTableRecord
100
AcDbLinetypeTableRecord
2
ByBlock
70
0
3

72
65
73
0
40
0.0
0
LTYPE
5
15
330
5
100
AcDbSymbolTableRecord
100
AcDbLinetypeTableRecord
2
ByLayer
70
0
3

72
65
73
0
40
0.0
0
LTYPE
5
16
330
5
100
AcDbSymbolTableRecord
100
AcDbLinetypeTableRecord
2
Continuous
70
0
3
Solid line
72
65
73
0
40
0.0
0
ENDTAB
0
TABLE
2
LAYER
70
1
0
LAYER
5
10
330
2
100
AcDbSymbolTableRecord
100
AcDbLayerTableRecord
2
0
70
0
62
7
6
Continuous
370
-3
390
F
347
47
348
0
0
ENDTAB
0
TABLE
2
STYLE
70
1
0
STYLE
5
11
330
3
100
AcDbSymbolTableRecord
100
AcDbTextStyleTableRecord
2
Standard
70
0
40
0.0
41
1.0
50
0.0
71
0
42
2.5
3
arial.ttf
4

1001
ACAD
1000
Arial
1071
0
0
ENDTAB
0
TABLE
2
APPID
70
1
0
APPID
5
12
330
9
100
AcDbSymbolTableRecord
100
AcDbRegAppTableRecord
2
ACAD
70
0
0
ENDTAB
0
TABLE
2
DIMSTYLE
70
1
0
DIMSTYLE
105
42
330
A
100
AcDbSymbolTableRecord
100
AcDbDimStyleTableRecord
2
ISO-25
70
0
41
2.5
42
0.625
43
3.75
44
1.25
49
1.0
50
44.99999999997431
70
0
73
0
74
0
77
1
78
8
140
2.5
141
2.5
143
0.03937007874
144
1.0
146
1.0
147
0.625
171
3
172
1
176
-1056964608
177
-1056964608
178
-1056964608
271
2
272
2
273
2
274
3
277
2
278
44
283
0
284
8
289
3
340
11
294
0
371
-2
372
-2
341
0
342
0
343
0
344
0
345
0
346
0
347
0
0
ENDTAB
0
TABLE
2
BLOCK_RECORD
70
3
0
BLOCK_RECORD
5
1F
330
1
100
AcDbSymbolTableRecord
100
AcDbBlockTableRecord
2
*Model_Space
340
3D
70
0
280
1
281
0
0
BLOCK_RECORD
5
1B
330
1
100
AcDbSymbolTableRecord
100
AcDbBlockTableRecord
2
*Paper_Space
340
1E
70
0
280
1
281
0
0
BLOCK_RECORD
5
3E
330
1
100
AcDbSymbolTableRecord
100
AcDbBlockTableRecord
2
*Paper_Space0
340
41
70
0
280
1
281
0
0
ENDTAB
0
ENDSEC
0
SECTION
2
BLOCKS
0
BLOCK
5
1C
330
1B
100
AcDbEntity
67
1
8
0
100
AcDbBlockBegin
2
*Paper_Space
70
0
10
0.0
20
0.0
30
0.0
3
*Paper_Space
1

0
ENDBLK
0
BLOCK
5
20
330
1F
100
AcDbEntity
8
0
100
AcDbBlockBegin
2
*Model_Space
70
0
10
0.0
20
0.0
30
0.0
3
*Model_Space
1

0
ENDBLK
0
BLOCK
5
3F
330
3E
100
AcDbEntity
8
0
100
AcDbBlockBegin
2
*Paper_Space0
70
0
10
0.0
20
0.0
30
0.0
3
*Paper_Space0
1

0
ENDBLK
0
ENDSEC
0
SECTION
2
ENTITIES
0
ENDSEC
0
SECTION
2
OBJECTS
0
DICTIONARY
5
95
3
ACAD_DETAILVIEWSTYLE
350
96
3
ACAD_GROUP
350
97
3
ACAD_LAYOUT
350
98
3
ACAD_MATERIAL
350
99
3
ACAD_MLEADERSTYLE
350
9A
3
ACAD_MLINESTYLE
350
9B
3
ACAD_PLOTSETTINGS
350
9C
3
ACAD_PLOTSTYLENAME
350
E
3
ACAD_SCALELIST
350
9D
3
ACAD_SECTIONVIEWSTYLE
350
9E
3
ACAD_TABLESTYLE
350
9F
3
ACAD_VISUALSTYLE
350
A0
3
AcDbVariableDictionary
350
A1
3
ACAD_RENDER_ACTIVE_SETTINGS
350
7B
3
ACAD_IMAGE_DICT
350
A2
3
ACAD_IMAGE_VARS
350
92
0
DICTIONARY
5
96
3
Metric50
350
7D
0
DICTIONARY
5
97
0
DICTIONARY
5
98
3
Présentation1
350
1E
3
Présentation2
350
41
3
Model
350
3D
0
DICTIONARY
5
99
3
ByBlock
350
46
3
ByLayer
350
45
3
Global
350
47
0
DICTIONARY
5
9A
3
Standard
350
6D
0
DICTIONARY
5
9B
3
Standard
350
18
0
DICTIONARY
5
9C
0
DICTIONARY
5
9D
3
A0
350
49
3
A1
350
4A
3
A2
350
4B
3
A3
350
4C
3
A4
350
4D
3
A5
350
4E
3
A6
350
4F
3
A7
350
50
3
A8
350
85
3
A9
350
51
3
B0
350
52
3
B1
350
53
3
B2
350
54
3
B3
350
86
3
B4
350
89
3
B5
350
55
3
B6
350
56
3
B7
350
57
3
B8
350
58
3
B9
350
59
0
DICTIONARY
5
9E
3
Metric50
350
7E
0
DICTIONARY
5
9F
3
Standard
350
6B
0
DICTIONARY
5
A0
3
2dWireframe
350
29
3
Basic
350
2C
3
Brighten
350
30
3
ColorChange
350
34
3
Conceptual
350
2E
3
Dim
350
2F
3
EdgeColorOff
350
37
3
Facepattern
350
33
3
Flat
350
25
3
FlatWithEdges
350
26
3
Gouraud
350
27
3
GouraudWithEdges
350
28
3
Hidden
350
2B
3
JitterOff
350
35
3
Linepattern
350
32
3
Modeling
350
6E
3
OverhangOff
350
36
3
Realistic
350
2D
3
Shaded
350
3C
3
Shaded with edges
350
3B
3
Shades of Gray
350
38
3
Sketchy
350
39
3
Thicken
350
31
3
Wireframe
350
2A
3
X-Ray
350
3A
0
DICTIONARY
5
A1
3
CANNOSCALE
350
70
3
CENTEREXE
350
79
3
CENTERLTYPEFILE
350
7A
3
CMLEADERSTYLE
350
75
3
CTABLESTYLE
350
74
3
LIGHTINGUNITS
350
76
3
CVIEWDETAILSTYLE
350
83
3
CVIEWSECTIONSTYLE
350
84
0
DICTIONARY
5
A2
0
ACDBDICTIONARYWDFLT
5
E
102
{ACAD_REACTORS
330
C
102
}
330
C
100
AcDbDictionary
281
1
3
Normal
350
F
100
AcDbDictionaryWithDefault
340
F
0
ACDBPLACEHOLDER
5
F
102
{ACAD_REACTORS
330
E
102
}
330
E
0
MLINESTYLE
5
18
102
{ACAD_REACTORS
330
17
102
}
330
17
100
AcDbMlineStyle
2
Standard
70
0
3

62
0
51
90.0
52
90.0
71
2
49
0.5
62
0
6
ByLayer
49
-0.5
62
0
6
ByLayer
0
LAYOUT
5
1E
102
{ACAD_REACTORS
330
1A
102
}
330
1A
100
AcDbPlotSettings
1

2
none_device
4

6

40
0.0
41
0.0
42
0.0
43
0.0
44
0.0
45
0.0
46
0.0
47
0.0
48
0.0
49
0.0
140
0.0
141
0.0
142
1.0
143
1.0
70
688
72
1
73
0
74
5
7

75
16
147
1.0
148
0.0
149
0.0
76
0
77
2
78
300
333
0
100
AcDbLayout
1
Présentation1
70
1
71
1
10
0.0
20
0.0
11
420.0
21
297.0
12
0.0
22
0.0
32
0.0
14
100000000000000000000.0
24
100000000000000000000.0
34
100000000000000000000.0
15
-100000000000000000000.0
25
-100000000000000000000.0
35
-100000000000000000000.0
146
0.0
13
0.0
23
0.0
33
0.0
16
1.0
26
0.0
36
0.0
17
0.0
27
1.0
37
0.0
76
0
330
1B
0
SUN
5
23
330
22
100
AcDbSun
90
1
290
0
63
7
421
3271557119
40
1.0
291
1
91
2455826
92
54000000
292
0
70
2
71
256
280
1
0
VISUALSTYLE
5
25
102
{ACAD_REACTORS
330
24
102
}
330
24
100
AcDbVisualStyle
2
Flat
70
0
177
2
291
1
70
58
90
2
176
1
90
1
176
1
90
1
176
1
90
2
176
1
40
0.6
176
1
40
30.0
176
1
62
7
420
3271557119
176
1
90
0
176
1
90
0
176
1
62
7
176
1
62
257
176
1
90
1
176
1
90
1
176
1
40
1.0
176
1
90
8
176
1
62
7
176
1
40
1.0
176
1
90
1
176
1
90
6
176
1
90
2
176
1
62
7
176
1
90
5
176
1
90
0
176
1
90
0
176
1
290
0
176
1
90
13
176
1
40
0.0
176
1
90
0
176
1
290
0
176
1
290
1
176
1
290
1
176
1
290
0
290
0
176
1
290
0
290
0
176
1
290
0
176
1
290
0
176
1
90
50
176
1
40
0.0
176
1
40
1.0
176
1
90
0
176
1
62
0
420
3254779904
176
1
90
50
176
1
90
3
176
1
62
5
420
3254780159
176
1
290
0
176
1
90
50
176
1
90
50
176
1
90
50
176
1
290
0
176
1
90
50
176
1
62
0
176
0
40
1.0
176
0
90
2
176
1
1
strokes_ogs.tif
176
1
290
0
176
1
40
1.0
176
1
40
1.0
176
1
0
VISUALSTYLE
5
26
102
{ACAD_REACTORS
330
24
102
}
330
24
100
AcDbVisualStyle
2
FlatWithEdges
70
1
177
2
291
1
70
58
90
2
176
1
90
1
176
1
90
1
176
1
90
2
176
1
40
0.6
176
1
40
30.0
176
1
62
7
420
3271557119
176
1
90
1
176
1
90
0
176
1
62
7
176
1
62
257
176
1
90
1
176
1
90
1
176
1
40
1.0
176
1
90
0
176
1
62
257
176
1
40
1.0
176
1
90
1
176
1
90
6
176
1
90
2
176
1
62
7
176
1
90
5
176
1
90
0
176
1
90
0
176
1
290
0
176
1
90
13
176
1
40
0.0
176
1
90
0
176
1
290
0
176
1
290
1
176
1
290
1
176
1
290
0
290
0
176
1
290
0
290
0
176
1
290
0
176
1
290
0
176
1
90
50
176
1
40
0.0
176
1
40
1.0
176
1
90
0
176
1
62
0
420
3254779904
176
1
90
50
176
1
90
3
176
1
62
5
420
3254780159
176
1
290
0
176
1
90
50
176
1
90
50
176
1
90
50
176
1
290
0
176
1
90
50
176
1
62
0
176
0
40
1.0
176
0
90
2
176
1
1
strokes_ogs.tif
176
1
290
0
176
1
40
1.0
176
1
40
1.0
176
1
0
VISUALSTYLE
5
27
102
{ACAD_REACTORS
330
24
102
}
330
24
100
AcDbVisualStyle
2
Gouraud
70
2
177
2
291
1
70
58
90
2
176
1
90
2
176
1
90
1
176
1
90
2
176
1
40
0.6
176
1
40
30.0
176
1
62
7
420
3271557119
176
1
90
0
176
1
90
0
176
1
62
7
176
1
62
257
176
1
90
1
176
1
90
1
176
1
40
1.0
176
1
90
0
176
1
62
7
176
1
40
1.0
176
1
90
1
176
1
90
6
176
1
90
2
176
1
62
7
176
1
90
5
176
1
90
0
176
1
90
0
176
1
290
0
176
1
90
13
176
1
40
0.0
176
1
90
0
176
1
290
0
176
1
290
1
176
1
290
1
176
1
290
0
290
0
176
1
290
0
290
0
176
1
290
0
176
1
290
0
176
1
90
50
176
1
40
0.0
176
1
40
1.0
176
1
90
0
176
1
62
0
420
3254779904
176
1
90
50
176
1
90
3
176
1
62
5
420
3254780159
176
1
290
0
176
1
90
50
176
1
90
50
176
1
90
50
176
1
290
0
176
1
90
50
176
1
62
0
176
0
40
1.0
176
0
90
2
176
1
1
strokes_ogs.tif
176
1
290
0
176
1
40
1.0
176
1
40
1.0
176
1
0
VISUALSTYLE
5
28
102
{ACAD_REACTORS
330
24
102
}
330
24
100
AcDbVisualStyle
2
GouraudWithEdges
70
3
177
2
291
1
70
58
90
2
176
1
90
2
176
1
90
1
176
1
90
2
176
1
40
0.6
176
1
40
30.0
176
1
62
7
420
3271557119
176
1
90
1
176
1
90
0
176
1
62
7
176
1
62
257
176
1
90
1
176
1
90
1
176
1
40
1.0
176
1
90
0
176
1
62
257
176
1
40
1.0
176
1
90
1
176
1
90
6
176
1
90
2
176
1
62
7
176
1
90
5
176
1
90
0
176
1
90
0
176
1
290
0
176
1
90
13
176
1
40
0.0
176
1
90
0
176
1
290
0
176
1
290
1
176
1
290
1
176
1
290
0
290
0
176
1
290
0
290
0
176
1
290
0
176
1
290
0
176
1
90
50
176
1
40
0.0
176
1
40
1.0
176
1
90
0
176
1
62
0
420
3254779904
176
1
90
50
176
1
90
3
176
1
62
5
420
3254780159
176
1
290
0
176
1
90
50
176
1
90
50
176
1
90
50
176
1
290
0
176
1
90
50
176
1
62
0
176
0
40
1.0
176
0
90
2
176
1
1
strokes_ogs.tif
176
1
290
0
176
1
40
1.0
176
1
40
1.0
176
1
0
VISUALSTYLE
5
29
102
{ACAD_REACTORS
330
24
102
}
330
24
100
AcDbVisualStyle
2
2dWireframe
70
4
177
2
291
0
70
58
90
0
176
1
90
2
176
1
90
0
176
1
90
0
176
1
40
0.6
176
1
40
30.0
176
1
62
7
420
3271557119
176
1
90
1
176
1
90
4
176
1
62
7
176
1
62
257
176
1
90
1
176
1
90
1
176
1
40
1.0
176
1
90
0
176
1
62
257
176
1
40
1.0
176
1
90
1
176
1
90
6
176
1
90
2
176
1
62
7
176
1
90
5
176
1
90
0
176
1
90
0
176
1
290
0
176
1
90
1
176
1
40
0.0
176
1
90
0
176
1
290
1
176
1
290
1
176
1
290
0
176
1
290
0
290
0
176
1
290
0
290
0
176
1
290
0
176
1
290
0
176
1
90
50
176
1
40
0.0
176
1
40
1.0
176
1
90
0
176
1
62
0
420
3254779904
176
1
90
50
176
1
90
3
176
1
62
5
420
3254780159
176
1
290
0
176
1
90
50
176
1
90
50
176
1
90
50
176
1
290
0
176
1
90
50
176
1
62
0
176
0
40
1.0
176
0
90
2
176
1
1
strokes_ogs.tif
176
1
290
0
176
1
40
1.0
176
1
40
1.0
176
1
0
VISUALSTYLE
5
2A
102
{ACAD_REACTORS
330
24
102
}
330
24
100
AcDbVisualStyle
2
Wireframe
70
5
177
2
291
0
70
58
90
0
176
1
90
2
176
1
90
0
176
1
90
0
176
1
40
0.6
176
1
40
30.0
176
1
62
7
420
3271557119
176
1
90
1
176
1
90
4
176
1
62
7
176
1
62
257
176
1
90
1
176
1
90
1
176
1
40
1.0
176
1
90
0
176
1
62
257
176
1
40
1.0
176
1
90
1
176
1
90
6
176
1
90
2
176
1
62
7
176
1
90
3
176
1
90
0
176
1
90
0
176
1
290
0
176
1
90
1
176
1
40
0.0
176
1
90
0
176
1
290
0
176
1
290
1
176
1
290
1
176
1
290
0
290
0
176
1
290
0
290
0
176
1
290
0
176
1
290
0
176
1
90
50
176
1
40
0.0
176
1
40
1.0
176
1
90
0
176
1
62
0
420
3254779904
176
1
90
50
176
1
90
3
176
1
62
5
420
3254780159
176
1
290
0
176
1
90
50
176
1
90
50
176
1
90
50
176
1
290
0
176
1
90
50
176
1
62
0
176
0
40
1.0
176
0
90
2
176
1
1
strokes_ogs.tif
176
1
290
0
176
1
40
1.0
176
1
40
1.0
176
1
0
VISUALSTYLE
5
2B
102
{ACAD_REACTORS
330
24
102
}
330
24
100
AcDbVisualStyle
2
Hidden
70
6
177
2
291
0
70
58
90
1
176
1
90
2
176
1
90
2
176
1
90
0
176
1
40
0.6
176
1
40
30.0
176
1
62
7
420
3271557119
176
1
90
2
176
1
90
2
176
1
62
7
176
1
62
257
176
1
90
2
176
1
90
1
176
1
40
40.0
176
1
90
0
176
1
62
257
176
1
40
1.0
176
1
90
1
176
1
90
6
176
1
90
2
176
1
62
7
176
1
90
3
176
1
90
0
176
1
90
0
176
1
290
0
176
1
90
1
176
1
40
0.0
176
1
90
0
176
1
290
0
176
1
290
1
176
1
290
1
176
1
290
0
290
0
176
1
290
0
290
0
176
1
290
0
176
1
290
0
176
1
90
50
176
1
40
0.0
176
1
40
1.0
176
1
90
0
176
1
62
0
420
3254779904
176
1
90
50
176
1
90
3
176
1
62
5
420
3254780159
176
1
290
0
176
1
90
50
176
1
90
50
176
1
90
50
176
1
290
0
176
1
90
50
176
1
62
0
176
0
40
1.0
176
0
90
2
176
1
1
strokes_ogs.tif
176
1
290
0
176
1
40
1.0
176
1
40
1.0
176
1
0
VISUALSTYLE
5
2C
102
{ACAD_REACTORS
330
24
102
}
330
24
100
AcDbVisualStyle
2
Basic
70
7
177
2
291
1
70
58
90
1
176
1
90
0
176
1
90
1
176
1
90
0
176
1
40
0.6
176
1
40
30.0
176
1
62
7
420
3271557119
176
1
90
0
176
1
90
4
176
1
62
7
176
1
62
257
176
1
90
1
176
1
90
1
176
1
40
1.0
176
1
90
8
176
1
62
7
176
1
40
1.0
176
1
90
1
176
1
90
6
176
1
90
2
176
1
62
7
176
1
90
5
176
1
90
0
176
1
90
0
176
1
290
0
176
1
90
1
176
1
40
0.0
176
1
90
0
176
1
290
0
176
1
290
1
176
1
290
1
176
1
290
0
290
0
176
1
290
0
290
0
176
1
290
0
176
1
290
0
176
1
90
50
176
1
40
0.0
176
1
40
1.0
176
1
90
0
176
1
62
0
420
3254779904
176
1
90
50
176
1
90
3
176
1
62
5
420
3254780159
176
1
290
0
176
1
90
50
176
1
90
50
176
1
90
50
176
1
290
0
176
1
90
50
176
1
62
0
176
0
40
1.0
176
0
90
2
176
1
1
strokes_ogs.tif
176
1
290
0
176
1
40
1.0
176
1
40
1.0
176
1
0
VISUALSTYLE
5
2D
102
{ACAD_REACTORS
330
24
102
}
330
24
100
AcDbVisualStyle
2
Realistic
70
8
177
2
291
0
70
58
90
2
176
1
90
3
176
1
90
0
176
1
90
2
176
1
40
0.6
176
1
40
30.0
176
1
62
7
420
3271557119
176
1
90
0
176
1
90
0
176
1
62
7
176
1
62
257
176
1
90
1
176
1
90
1
176
1
40
1.0
176
1
90
8
176
1
62
257
176
1
40
1.0
176
1
90
1
176
1
90
6
176
1
90
2
176
1
62
7
176
1
90
3
176
1
90
0
176
1
90
0
176
1
290
0
176
1
90
13
176
1
40
0.0
176
1
90
0
176
1
290
0
176
1
290
1
176
1
290
1
176
1
290
0
290
0
176
1
290
0
290
0
176
1
290
0
176
1
290
0
176
1
90
50
176
1
40
0.0
176
1
40
1.0
176
1
90
0
176
1
62
0
420
3254779904
176
1
90
50
176
1
90
3
176
1
62
5
420
3254780159
176
1
290
0
176
1
90
50
176
1
90
50
176
1
90
50
176
1
290
0
176
1
90
50
176
1
62
0
176
0
40
1.0
176
0
90
2
176
1
1
strokes_ogs.tif
176
1
290
0
176
1
40
1.0
176
1
40
1.0
176
1
0
VISUALSTYLE
5
2E
102
{ACAD_REACTORS
330
24
102
}
330
24
100
AcDbVisualStyle
2
Conceptual
70
9
177
2
291
0
70
58
90
3
176
1
90
2
176
1
90
0
176
1
90
0
176
1
40
0.6
176
1
40
30.0
176
1
62
7
420
3271557119
176
1
90
2
176
1
90
2
176
1
62
7
176
1
62
257
176
1
90
1
176
1
90
1
176
1
40
179.0
176
1
90
8
176
1
62
7
176
1
40
1.0
176
1
90
1
176
1
90
6
176
1
90
2
176
1
62
7
176
1
90
3
176
1
90
0
176
1
90
0
176
1
290
0
176
1
90
1
176
1
40
0.0
176
1
90
0
176
1
290
0
176
1
290
1
176
1
290
1
176
1
290
0
290
0
176
1
290
0
290
0
176
1
290
0
176
1
290
0
176
1
90
50
176
1
40
0.0
176
1
40
1.0
176
1
90
0
176
1
62
0
420
3254779904
176
1
90
50
176
1
90
3
176
1
62
5
420
3254780159
176
1
290
0
176
1
90
50
176
1
90
50
176
1
90
50
176
1
290
0
176
1
90
50
176
1
62
0
176
0
40
1.0
176
0
90
2
176
1
1
strokes_ogs.tif
176
1
290
0
176
1
40
1.0
176
1
40
1.0
176
1
0
VISUALSTYLE
5
2F
102
{ACAD_REACTORS
330
24
102
}
330
24
100
AcDbVisualStyle
2
Dim
70
11
177
2
291
1
70
58
90
2
176
1
90
2
176
1
90
0
176
1
90
0
176
1
40
0.6
176
1
40
30.0
176
1
62
7
420
3271557119
176
1
90
1
176
1
90
4
176
1
62
7
176
1
62
257
176
1
90
1
176
1
90
1
176
1
40
1.0
176
1
90
8
176
1
62
7
176
1
40
1.0
176
1
90
1
176
1
90
6
176
1
90
2
176
1
62
7
176
1
90
5
176
1
90
0
176
1
90
0
176
1
290
0
176
1
90
1
176
1
40
-50.0
176
1
90
0
176
1
290
0
176
1
290
1
176
1
290
1
176
1
290
0
290
0
176
1
290
0
290
0
176
1
290
0
176
1
290
0
176
1
90
50
176
1
40
0.0
176
1
40
1.0
176
1
90
0
176
1
62
0
420
3254779904
176
1
90
50
176
1
90
3
176
1
62
5
420
3254780159
176
1
290
0
176
1
90
50
176
1
90
50
176
1
90
50
176
1
290
0
176
1
90
50
176
1
62
0
176
0
40
1.0
176
0
90
2
176
1
1
strokes_ogs.tif
176
1
290
0
176
1
40
1.0
176
1
40
1.0
176
1
0
VISUALSTYLE
5
30
102
{ACAD_REACTORS
330
24
102
}
330
24
100
AcDbVisualStyle
2
Brighten
70
12
177
2
291
1
70
58
90
2
176
1
90
2
176
1
90
0
176
1
90
0
176
1
40
0.6
176
1
40
30.0
176
1
62
7
420
3271557119
176
1
90
1
176
1
90
4
176
1
62
7
176
1
62
257
176
1
90
1
176
1
90
1
176
1
40
1.0
176
1
90
8
176
1
62
7
176
1
40
1.0
176
1
90
1
176
1
90
6
176
1
90
2
176
1
62
7
176
1
90
5
176
1
90
0
176
1
90
0
176
1
290
0
176
1
90
1
176
1
40
50.0
176
1
90
0
176
1
290
0
176
1
290
1
176
1
290
1
176
1
290
0
290
0
176
1
290
0
290
0
176
1
290
0
176
1
290
0
176
1
90
50
176
1
40
0.0
176
1
40
1.0
176
1
90
0
176
1
62
0
420
3254779904
176
1
90
50
176
1
90
3
176
1
62
5
420
3254780159
176
1
290
0
176
1
90
50
176
1
90
50
176
1
90
50
176
1
290
0
176
1
90
50
176
1
62
0
176
0
40
1.0
176
0
90
2
176
1
1
strokes_ogs.tif
176
1
290
0
176
1
40
1.0
176
1
40
1.0
176
1
0
VISUALSTYLE
5
31
102
{ACAD_REACTORS
330
24
102
}
330
24
100
AcDbVisualStyle
2
Thicken
70
13
177
2
291
1
70
58
90
2
176
1
90
2
176
1
90
0
176
1
90
0
176
1
40
0.6
176
1
40
30.0
176
1
62
7
420
3271557119
176
1
90
1
176
1
90
4
176
1
62
7
176
1
62
257
176
1
90
1
176
1
90
1
176
1
40
1.0
176
1
90
12
176
1
62
7
176
1
40
1.0
176
1
90
1
176
1
90
6
176
1
90
2
176
1
62
7
176
1
90
5
176
1
90
0
176
1
90
0
176
1
290
0
176
1
90
1
176
1
40
0.0
176
1
90
0
176
1
290
0
176
1
290
1
176
1
290
1
176
1
290
0
290
0
176
1
290
0
290
0
176
1
290
0
176
1
290
0
176
1
90
50
176
1
40
0.0
176
1
40
1.0
176
1
90
0
176
1
62
0
420
3254779904
176
1
90
50
176
1
90
3
176
1
62
5
420
3254780159
176
1
290
0
176
1
90
50
176
1
90
50
176
1
90
50
176
1
290
0
176
1
90
50
176
1
62
0
176
0
40
1.0
176
0
90
2
176
1
1
strokes_ogs.tif
176
1
290
0
176
1
40
1.0
176
1
40
1.0
176
1
0
VISUALSTYLE
5
32
102
{ACAD_REACTORS
330
24
102
}
330
24
100
AcDbVisualStyle
2
Linepattern
70
14
177
2
291
1
70
58
90
2
176
1
90
2
176
1
90
0
176
1
90
0
176
1
40
0.6
176
1
40
30.0
176
1
62
7
420
3271557119
176
1
90
1
176
1
90
4
176
1
62
7
176
1
62
257
176
1
90
7
176
1
90
7
176
1
40
1.0
176
1
90
8
176
1
62
7
176
1
40
1.0
176
1
90
1
176
1
90
6
176
1
90
2
176
1
62
7
176
1
90
5
176
1
90
0
176
1
90
0
176
1
290
0
176
1
90
1
176
1
40
0.0
176
1
90
0
176
1
290
0
176
1
290
1
176
1
290
1
176
1
290
0
290
0
176
1
290
0
290
0
176
1
290
0
176
1
290
0
176
1
90
50
176
1
40
0.0
176
1
40
1.0
176
1
90
0
176
1
62
0
420
3254779904
176
1
90
50
176
1
90
3
176
1
62
5
420
3254780159
176
1
290
0
176
1
90
50
176
1
90
50
176
1
90
50
176
1
290
0
176
1
90
50
176
1
62
0
176
0
40
1.0
176
0
90
2
176
1
1
strokes_ogs.tif
176
1
290
0
176
1
40
1.0
176
1
40
1.0
176
1
0
VISUALSTYLE
5
33
102
{ACAD_REACTORS
330
24
102
}
330
24
100
AcDbVisualStyle
2
Facepattern
70
15
177
2
291
1
70
58
90
2
176
1
90
2
176
1
90
0
176
1
90
0
176
1
40
0.6
176
1
40
30.0
176
1
62
7
420
3271557119
176
1
90
1
176
1
90
4
176
1
62
7
176
1
62
257
176
1
90
1
176
1
90
1
176
1
40
1.0
176
1
90
8
176
1
62
7
176
1
40
1.0
176
1
90
1
176
1
90
6
176
1
90
2
176
1
62
7
176
1
90
5
176
1
90
0
176
1
90
0
176
1
290
0
176
1
90
1
176
1
40
0.0
176
1
90
0
176
1
290
0
176
1
290
1
176
1
290
1
176
1
290
0
290
0
176
1
290
0
290
0
176
1
290
0
176
1
290
0
176
1
90
50
176
1
40
0.0
176
1
40
1.0
176
1
90
0
176
1
62
0
420
3254779904
176
1
90
50
176
1
90
3
176
1
62
5
420
3254780159
176
1
290
0
176
1
90
50
176
1
90
50
176
1
90
50
176
1
290
0
176
1
90
50
176
1
62
0
176
0
40
1.0
176
0
90
2
176
1
1
strokes_ogs.tif
176
1
290
0
176
1
40
1.0
176
1
40
1.0
176
1
0
VISUALSTYLE
5
34
102
{ACAD_REACTORS
330
24
102
}
330
24
100
AcDbVisualStyle
2
ColorChange
70
16
177
2
291
1
70
58
90
2
176
1
90
2
176
1
90
3
176
1
90
0
176
1
40
0.6
176
1
40
30.0
176
1
62
9
420
3263201408
176
1
90
1
176
1
90
4
176
1
62
7
176
1
62
257
176
1
90
1
176
1
90
1
176
1
40
1.0
176
1
90
8
176
1
62
9
420
3263201408
176
1
40
1.0
176
1
90
1
176
1
90
6
176
1
90
2
176
1
62
7
176
1
90
5
176
1
90
0
176
1
90
0
176
1
290
0
176
1
90
1
176
1
40
0.0
176
1
90
0
176
1
290
0
176
1
290
1
176
1
290
1
176
1
290
0
290
0
176
1
290
0
290
0
176
1
290
0
176
1
290
0
176
1
90
50
176
1
40
0.0
176
1
40
1.0
176
1
90
0
176
1
62
0
420
3254779904
176
1
90
50
176
1
90
3
176
1
62
5
420
3254780159
176
1
290
0
176
1
90
50
176
1
90
50
176
1
90
50
176
1
290
0
176
1
90
50
176
1
62
0
176
0
40
1.0
176
0
90
2
176
1
1
strokes_ogs.tif
176
1
290
0
176
1
40
1.0
176
1
40
1.0
176
1
0
VISUALSTYLE
5
35
102
{ACAD_REACTORS
330
24
102
}
330
24
100
AcDbVisualStyle
2
JitterOff
70
20
177
2
291
1
70
58
90
2
176
0
90
2
176
0
90
0
176
0
90
0
176
0
40
0.6
176
0
40
30.0
176
0
62
7
420
3271557119
176
0
90
1
176
0
90
4
176
0
62
7
176
0
62
257
176
0
90
1
176
0
90
1
176
0
40
1.0
176
0
90
10
176
2
62
7
176
0
40
1.0
176
0
90
1
176
0
90
6
176
0
90
2
176
0
62
7
176
0
90
5
176
0
90
0
176
0
90
0
176
0
290
0
176
0
90
1
176
0
40
0.0
176
0
90
0
176
0
290
0
176
0
290
1
176
0
290
1
176
0
290
0
290
0
176
0
290
0
290
0
176
0
290
0
176
0
290
0
176
0
90
50
176
0
40
0.0
176
0
40
1.0
176
0
90
0
176
0
62
0
420
3254779904
176
0
90
50
176
0
90
3
176
0
62
5
420
3254780159
176
0
290
0
176
0
90
50
176
0
90
50
176
0
90
50
176
0
290
0
176
0
90
50
176
0
62
0
176
0
40
1.0
176
0
90
2
176
0
1
strokes_ogs.tif
176
0
290
0
176
0
40
1.0
176
0
40
1.0
176
0
0
VISUALSTYLE
5
36
102
{ACAD_REACTORS
330
24
102
}
330
24
100
AcDbVisualStyle
2
OverhangOff
70
21
177
2
291
1
70
58
90
2
176
0
90
2
176
0
90
0
176
0
90
0
176
0
40
0.6
176
0
40
30.0
176
0
62
7
420
3271557119
176
0
90
1
176
0
90
4
176
0
62
7
176
0
62
257
176
0
90
1
176
0
90
1
176
0
40
1.0
176
0
90
9
176
2
62
7
176
0
40
1.0
176
0
90
1
176
0
90
6
176
0
90
2
176
0
62
7
176
0
90
5
176
0
90
0
176
0
90
0
176
0
290
0
176
0
90
1
176
0
40
0.0
176
0
90
0
176
0
290
0
176
0
290
1
176
0
290
1
176
0
290
0
290
0
176
0
290
0
290
0
176
0
290
0
176
0
290
0
176
0
90
50
176
0
40
0.0
176
0
40
1.0
176
0
90
0
176
0
62
0
420
3254779904
176
0
90
50
176
0
90
3
176
0
62
5
420
3254780159
176
0
290
0
176
0
90
50
176
0
90
50
176
0
90
50
176
0
290
0
176
0
90
50
176
0
62
0
176
0
40
1.0
176
0
90
2
176
0
1
strokes_ogs.tif
176
0
290
0
176
0
40
1.0
176
0
40
1.0
176
0
0
VISUALSTYLE
5
37
102
{ACAD_REACTORS
330
24
102
}
330
24
100
AcDbVisualStyle
2
EdgeColorOff
70
22
177
2
291
1
70
58
90
2
176
0
90
2
176
0
90
0
176
0
90
0
176
0
40
0.6
176
0
40
30.0
176
0
62
7
420
3271557119
176
0
90
1
176
0
90
4
176
0
62
7
176
0
62
257
176
0
90
1
176
0
90
1
176
0
40
1.0
176
0
90
8
176
2
62
7
176
0
40
1.0
176
0
90
1
176
0
90
6
176
0
90
2
176
0
62
7
176
0
90
5
176
0
90
0
176
0
90
0
176
0
290
0
176
0
90
1
176
0
40
0.0
176
0
90
0
176
0
290
0
176
0
290
1
176
0
290
1
176
0
290
0
290
0
176
0
290
0
290
0
176
0
290
0
176
0
290
0
176
0
90
50
176
0
40
0.0
176
0
40
1.0
176
0
90
0
176
0
62
0
420
3254779904
176
0
90
50
176
0
90
3
176
0
62
5
420
3254780159
176
0
290
0
176
0
90
50
176
0
90
50
176
0
90
50
176
0
290
0
176
0
90
50
176
0
62
0
176
0
40
1.0
176
0
90
2
176
0
1
strokes_ogs.tif
176
0
290
0
176
0
40
1.0
176
0
40
1.0
176
0
0
VISUALSTYLE
5
38
102
{ACAD_REACTORS
330
24
102
}
330
24
100
AcDbVisualStyle
2
Shades of Gray
70
23
177
2
291
0
70
58
90
2
176
1
90
2
176
1
90
3
176
1
90
0
176
1
40
0.6
176
1
40
30.0
176
1
62
7
420
3271557119
176
1
90
2
176
1
90
2
176
1
62
7
176
1
62
7
176
1
90
1
176
1
90
1
176
1
40
40.0
176
1
90
8
176
1
62
7
176
1
40
1.0
176
1
90
1
176
1
90
6
176
1
90
2
176
1
62
7
176
1
90
3
176
1
90
0
176
1
90
0
176
1
290
0
176
1
90
1
176
1
40
0.0
176
1
90
0
176
1
290
0
176
1
290
1
176
1
290
1
176
1
290
0
290
0
176
1
290
0
290
0
176
1
290
0
176
1
290
0
176
1
90
50
176
1
40
0.0
176
1
40
1.0
176
1
90
0
176
1
62
0
420
3254779904
176
1
90
50
176
1
90
3
176
1
62
5
420
3254780159
176
1
290
0
176
1
90
50
176
1
90
50
176
1
90
50
176
1
290
0
176
1
90
50
176
1
62
0
176
0
40
1.0
176
0
90
2
176
1
1
strokes_ogs.tif
176
1
290
0
176
1
40
1.0
176
1
40
1.0
176
1
0
VISUALSTYLE
5
39
102
{ACAD_REACTORS
330
24
102
}
330
24
100
AcDbVisualStyle
2
Sketchy
70
24
177
2
291
0
70
58
90
1
176
1
90
2
176
1
90
2
176
1
90
0
176
1
40
0.6
176
1
40
30.0
176
1
62
7
420
3271557119
176
1
90
2
176
1
90
2
176
1
62
7
176
1
62
7
176
1
90
1
176
1
90
1
176
1
40
40.0
176
1
90
11
176
1
62
7
176
1
40
1.0
176
1
90
1
176
1
90
6
176
1
90
2
176
1
62
7
176
1
90
6
176
1
90
0
176
1
90
0
176
1
290
0
176
1
90
1
176
1
40
0.0
176
1
90
0
176
1
290
0
176
1
290
1
176
1
290
1
176
1
290
0
290
0
176
1
290
0
290
0
176
1
290
0
176
1
290
0
176
1
90
50
176
1
40
0.0
176
1
40
1.0
176
1
90
0
176
1
62
0
420
3254779904
176
1
90
50
176
1
90
3
176
1
62
5
420
3254780159
176
1
290
0
176
1
90
50
176
1
90
50
176
1
90
50
176
1
290
0
176
1
90
50
176
1
62
0
176
0
40
1.0
176
0
90
2
176
1
1
strokes_ogs.tif
176
1
290
0
176
1
40
1.0
176
1
40
1.0
176
1
0
VISUALSTYLE
5
3A
102
{ACAD_REACTORS
330
24
102
}
330
24
100
AcDbVisualStyle
2
X-Ray
70
25
177
2
291
0
70
58
90
2
176
1
90
2
176
1
90
1
176
1
90
1
176
1
40
0.5
176
1
40
30.0
176
1
62
7
420
3271557119
176
1
90
1
176
1
90
0
176
1
62
7
176
1
62
257
176
1
90
1
176
1
90
1
176
1
40
1.0
176
1
90
8
176
1
62
7
176
1
40
1.0
176
1
90
1
176
1
90
6
176
1
90
2
176
1
62
7
176
1
90
3
176
1
90
0
176
1
90
0
176
1
290
0
176
1
90
13
176
1
40
0.0
176
1
90
0
176
1
290
0
176
1
290
1
176
1
290
1
176
1
290
0
290
0
176
1
290
0
290
0
176
1
290
0
176
1
290
0
176
1
90
50
176
1
40
0.0
176
1
40
1.0
176
1
90
0
176
1
62
0
420
3254779904
176
1
90
50
176
1
90
3
176
1
62
5
420
3254780159
176
1
290
0
176
1
90
50
176
1
90
50
176
1
90
50
176
1
290
0
176
1
90
50
176
1
62
0
176
0
40
1.0
176
0
90
2
176
1
1
strokes_ogs.tif
176
1
290
0
176
1
40
1.0
176
1
40
1.0
176
1
0
VISUALSTYLE
5
3B
102
{ACAD_REACTORS
330
24
102
}
330
24
100
AcDbVisualStyle
2
Shaded with edges
70
26
177
2
291
0
70
58
90
2
176
1
90
2
176
1
90
1
176
1
90
2
176
1
40
0.6
176
1
40
30.0
176
1
62
7
420
3271557119
176
1
90
1
176
1
90
10
176
1
62
7
176
1
62
257
176
1
90
2
176
1
90
1
176
1
40
1.0
176
1
90
8
176
1
62
257
176
1
40
1.0
176
1
90
1
176
1
90
6
176
1
90
2
176
1
62
7
176
1
90
3
176
1
90
0
176
1
90
0
176
1
290
0
176
1
90
5
176
1
40
0.0
176
1
90
0
176
1
290
0
176
1
290
1
176
1
290
1
176
1
290
0
290
0
176
1
290
0
290
0
176
1
290
0
176
1
290
0
176
1
90
50
176
1
40
0.0
176
1
40
1.0
176
1
90
0
176
1
62
0
420
3254779904
176
1
90
50
176
1
90
3
176
1
62
5
420
3254780159
176
1
290
0
176
1
90
50
176
1
90
50
176
1
90
50
176
1
290
0
176
1
90
50
176
1
62
0
176
0
40
1.0
176
0
90
2
176
1
1
strokes_ogs.tif
176
1
290
0
176
1
40
1.0
176
1
40
1.0
176
1
0
VISUALSTYLE
5
3C
102
{ACAD_REACTORS
330
24
102
}
330
24
100
AcDbVisualStyle
2
Shaded
70
27
177
2
291
0
70
58
90
2
176
1
90
2
176
1
90
1
176
1
90
2
176
1
40
0.6
176
1
40
30.0
176
1
62
7
420
3271557119
176
1
90
0
176
1
90
4
176
1
62
7
176
1
62
257
176
1
90
1
176
1
90
1
176
1
40
1.0
176
1
90
8
176
1
62
257
176
1
40
1.0
176
1
90
1
176
1
90
6
176
1
90
2
176
1
62
256
420
3262675064
176
1
90
3
176
1
90
0
176
1
90
0
176
1
290
0
176
1
90
5
176
1
40
0.0
176
1
90
0
176
1
290
0
176
1
290
1
176
1
290
1
176
1
290
0
290
0
176
1
290
0
290
0
176
1
290
0
176
1
290
0
176
1
90
50
176
1
40
0.0
176
1
40
1.0
176
1
90
0
176
1
62
0
420
3254779904
176
1
90
50
176
1
90
3
176
1
62
5
420
3254780159
176
1
290
0
176
1
90
50
176
1
90
50
176
1
90
50
176
1
290
0
176
1
90
50
176
1
62
0
176
0
40
1.0
176
0
90
2
176
1
1
strokes_ogs.tif
176
1
290
0
176
1
40
1.0
176
1
40
1.0
176
1
0
LAYOUT
5
3D
102
{ACAD_REACTORS
330
1A
102
}
330
1A
100
AcDbPlotSettings
1

2
none_device
4
ISO_A4_(210.00_x_297.00_MM)
6

40
7.5
41
20.0
42
7.5
43
20.0
44
210.0
45
297.0
46
0.0
47
0.0
48
0.0
49
0.0
140
0.0
141
0.0
142
1.0
143
3.004989604802307
70
1712
72
1
73
0
74
0
7

75
0
147
0.3327798533485403
148
-51.20042941962498
149
0.0
76
0
77
2
78
300
333
0
100
AcDbLayout
1
Model
70
1
71
0
10
0.0
20
0.0
11
420.0
21
297.0
12
0.0
22
0.0
32
0.0
14
100000000000000000000.0
24
100000000000000000000.0
34
100000000000000000000.0
15
-100000000000000000000.0
25
-100000000000000000000.0
35
-100000000000000000000.0
146
0.0
13
0.0
23
0.0
33
0.0
16
1.0
26
0.0
36
0.0
17
0.0
27
1.0
37
0.0
76
0
330
1F
0
LAYOUT
5
41
102
{ACAD_REACTORS
330
1A
102
}
330
1A
100
AcDbPlotSettings
1

2
none_device
4

6

40
0.0
41
0.0
42
0.0
43
0.0
44
0.0
45
0.0
46
0.0
47
0.0
48
0.0
49
0.0
140
0.0
141
0.0
142
1.0
143
1.0
70
688
72
1
73
0
74
5
7

75
16
147
1.0
148
0.0
149
0.0
76
0
77
2
78
300
333
0
100
AcDbLayout
1
Présentation2
70
1
71
2
10
0.0
20
0.0
11
0.0
21
0.0
12
0.0
22
0.0
32
0.0
14
0.0
24
0.0
34
0.0
15
0.0
25
0.0
35
0.0
146
0.0
13
0.0
23
0.0
33
0.0
16
1.0
26
0.0
36
0.0
17
0.0
27
1.0
37
0.0
76
0
330
3E
0
SCALE
5
49
102
{ACAD_REACTORS
330
48
102
}
330
48
100
AcDbScale
70
0
300
1:1
140
1.0
141
1.0
290
1
0
SCALE
5
4A
102
{ACAD_REACTORS
330
48
102
}
330
48
100
AcDbScale
70
0
300
1:2
140
1.0
141
2.0
290
0
0
SCALE
5
4B
102
{ACAD_REACTORS
330
48
102
}
330
48
100
AcDbScale
70
0
300
1:4
140
1.0
141
4.0
290
0
0
SCALE
5
4C
102
{ACAD_REACTORS
330
48
102
}
330
48
100
AcDbScale
70
0
300
1:5
140
1.0
141
5.0
290
0
0
SCALE
5
4D
102
{ACAD_REACTORS
330
48
102
}
330
48
100
AcDbScale
70
0
300
1:8
140
1.0
141
8.0
290
0
0
SCALE
5
4E
102
{ACAD_REACTORS
330
48
102
}
330
48
100
AcDbScale
70
0
300
1:10
140
1.0
141
10.0
290
0
0
SCALE
5
4F
102
{ACAD_REACTORS
330
48
102
}
330
48
100
AcDbScale
70
0
300
1:16
140
1.0
141
16.0
290
0
0
SCALE
5
50
102
{ACAD_REACTORS
330
48
102
}
330
48
100
AcDbScale
70
0
300
1:20
140
1.0
141
20.0
290
0
0
SCALE
5
51
102
{ACAD_REACTORS
330
48
102
}
330
48
100
AcDbScale
70
0
300
1:30
140
1.0
141
30.0
290
0
0
SCALE
5
52
102
{ACAD_REACTORS
330
48
102
}
330
48
100
AcDbScale
70
0
300
1:40
140
1.0
141
40.0
290
0
0
SCALE
5
53
102
{ACAD_REACTORS
330
48
102
}
330
48
100
AcDbScale
70
0
300
1:50
140
1.0
141
50.0
290
0
0
SCALE
5
54
102
{ACAD_REACTORS
330
48
102
}
330
48
100
AcDbScale
70
0
300
1:100
140
1.0
141
100.0
290
0
0
SCALE
5
55
102
{ACAD_REACTORS
330
48
102
}
330
48
100
AcDbScale
70
0
300
2:1
140
2.0
141
1.0
290
0
0
SCALE
5
56
102
{ACAD_REACTORS
330
48
102
}
330
48
100
AcDbScale
70
0
300
4:1
140
4.0
141
1.0
290
0
0
SCALE
5
57
102
{ACAD_REACTORS
330
48
102
}
330
48
100
AcDbScale
70
0
300
8:1
140
8.0
141
1.0
290
0
0
SCALE
5
58
102
{ACAD_REACTORS
330
48
102
}
330
48
100
AcDbScale
70
0
300
10:1
140
10.0
141
1.0
290
0
0
SCALE
5
59
102
{ACAD_REACTORS
330
48
102
}
330
48
100
AcDbScale
70
0
300
100:1
140
100.0
141
1.0
290
0
0
VISUALSTYLE
5
6E
102
{ACAD_REACTORS
330
24
102
}
330
24
100
AcDbVisualStyle
2
Modeling
70
10
177
2
291
0
70
58
90
2
176
1
90
3
176
1
90
0
176
1
90
2
176
1
40
0.6
176
1
40
30.0
176
1
62
7
420
3271557119
176
1
90
2
176
1
90
0
176
1
62
7
176
1
62
257
176
1
90
1
176
1
90
1
176
1
40
180.0
176
1
90
8
176
1
62
256
420
3262675064
176
1
40
1.0
176
1
90
1
176
1
90
6
176
1
90
2
176
1
62
7
176
1
90
5
176
1
90
0
176
1
90
0
176
1
290
0
176
1
90
13
176
1
40
0.0
176
1
90
0
176
1
290
0
176
1
290
1
176
1
290
1
176
1
290
0
290
0
176
1
290
0
290
0
176
1
290
0
176
1
290
0
176
1
90
50
176
1
40
0.0
176
1
40
1.0
176
1
90
0
176
1
62
0
420
3254779904
176
1
90
50
176
1
90
3
176
1
62
5
420
3254780159
176
1
290
0
176
1
90
50
176
1
90
50
176
1
90
50
176
1
290
0
176
1
90
50
176
1
62
0
176
0
40
1.0
176
0
90
2
176
1
1
strokes_ogs.tif
176
1
290
0
176
1
40
1.0
176
1
40
1.0
176
1
0
DICTIONARYVAR
5
70
102
{ACAD_REACTORS
330
6F
102
}
330
6F
100
DictionaryVariables
280
0
1
1:1
0
DICTIONARYVAR
5
74
102
{ACAD_REACTORS
330
6F
102
}
330
6F
100
DictionaryVariables
280
0
1
Standard
0
DICTIONARYVAR
5
75
102
{ACAD_REACTORS
330
6F
102
}
330
6F
100
DictionaryVariables
280
0
1
Standard
0
DICTIONARYVAR
5
76
102
{ACAD_REACTORS
330
6F
102
}
330
6F
100
DictionaryVariables
280
0
1
2
0
DICTIONARYVAR
5
79
102
{ACAD_REACTORS
330
6F
102
}
330
6F
100
DictionaryVariables
280
0
1
3.500000
0
DICTIONARYVAR
5
7A
102
{ACAD_REACTORS
330
6F
102
}
330
6F
100
DictionaryVariables
280
0
1
iso.lin
0
ACDBDETAILVIEWSTYLE
5
7D
102
{ACAD_XDICTIONARY
360
7F
102
}
102
{ACAD_REACTORS
330
77
102
}
330
77
100
AcDbModelDocViewStyle
70
0
3
Imperial24
290
0
300
Imperial24
90
0
100
AcDbDetailViewStyle
70
0
71
0
90
3
71
1
340
11
62
0
40
5.0
340
0
62
0
40
5.0
300

40
0.36
280
1
71
2
340
16
90
25
62
0
71
3
340
11
62
0
40
5.0
90
0
40
15.0
90
1
300
%<\AcVar ViewDetailId>% (%<\AcVar ViewScale \f "%sn">%)
71
4
340
16
90
25
62
0
340
16
90
25
62
0
280
0
0
ACDBSECTIONVIEWSTYLE
5
7E
102
{ACAD_XDICTIONARY
360
81
102
}
102
{ACAD_REACTORS
330
78
102
}
330
78
100
AcDbModelDocViewStyle
70
0
3
Imperial24
290
0
300
Imperial24
90
0
100
AcDbSectionViewStyle
70
0
71
0
90
110
71
1
340
11
62
0
40
5.0
340
0
340
0
62
0
40
5.0
300
I, O, Q, S, X, Z
40
10.0
90
0
40
2.5
90
0
71
2
340
16
90
25
62
0
340
16
90
50
62
0
40
5.0
40
2.5
40
5.0
71
3
340
11
62
0
40
5.0
90
0
40
15.0
90
1
300
%<\AcVar ViewSectionStartId>%-%<\AcVar ViewSectionEndId>% (%<\AcVar ViewScale \f "%sn">%)
71
4
62
0
62
257
300
ANSI31
40
1.0
90
0
290
0
290
0
90
6
40
0.0
40
1.570796
40
0.261799
40
1.308997
40
-0.261799
40
1.832596
0
DICTIONARYVAR
5
83
102
{ACAD_REACTORS
330
6F
102
}
330
6F
100
DictionaryVariables
280
0
1
Metric50
0
DICTIONARYVAR
5
84
102
{ACAD_REACTORS
330
6F
102
}
330
6F
100
DictionaryVariables
280
0
1
Metric50
0
SCALE
5
85
102
{ACAD_REACTORS
330
48
102
}
330
48
100
AcDbScale
70
0
300
1:25
140
1.0
141
25.0
290
0
0
SCALE
5
86
102
{ACAD_REACTORS
330
48
102
}
330
48
100
AcDbScale
70
0
300
1:500
140
1.0
141
500.0
290
0
0
SCALE
5
89
102
{ACAD_REACTORS
330
48
102
}
330
48
100
AcDbScale
70
0
300
1:1000
140
1.0
141
1000.0
290
0
0
RASTERVARIABLES
5
92
102
{ACAD_REACTORS
330
C
102
}
330
C
100
AcDbRasterVariables
90
0
70
1
71
1
72
3
0
ENDSEC
0
EOF
